<?xml version="1.0" encoding="UTF-8"?><svg id="a" xmlns="http://www.w3.org/2000/svg" viewBox="0 0 1000 1000"><defs><style>.e{fill:#333;}.f{fill:none;stroke:#333;stroke-miterlimit:10;stroke-width:32px;}</style></defs><g id="b"><path id="c" class="e" d="M507.59,653.29l24.22-85.33c1.61-5.69-2.66-11.34-8.57-11.34h-48.43c-5.91,0-10.18,5.65-8.57,11.34l24.22,85.33c2.45,8.63,14.69,8.63,17.14,0Z"/><g id="d"><path class="e" d="M394.05,434.76v-70.32c0-10.74-14.62-13.93-19.09-4.16l-53.25,116.26c-4.47,9.76,7.49,18.75,15.62,11.74l53.25-45.94c2.2-1.9,3.47-4.66,3.47-7.57Z"/><path class="e" d="M605.09,435.09v-70.32c0-10.74,14.62-13.93,19.09-4.16l53.25,116.26c4.47,9.76-7.49,18.75-15.62,11.74l-53.25-45.94c-2.2-1.9-3.47-4.66-3.47-7.57Z"/></g><path class="e" d="M579.29,306.03h-16c-7.73,0-14,6.27-14,14v181.89h-100v-181.89c0-7.73-6.27-14-14-14h-16c-7.73,0-14,6.27-14,14v211.77c0,7.73,6.27,14,14,14h160c7.73,0,14-6.27,14-14v-211.77c0-7.73-6.27-14-14-14Z"/><path class="f" d="M503.91,752.53l214.37-103.24c2.74-1.32,4.73-3.82,5.41-6.78l52.95-231.97c.68-2.97-.03-6.08-1.93-8.46l-148.35-186.03c-1.9-2.38-4.78-3.77-7.82-3.77h-237.94c-3.04,0-5.92,1.39-7.82,3.77l-148.35,186.03c-1.9,2.38-2.61,5.49-1.93,8.46l52.95,231.97c.68,2.97,2.67,5.46,5.41,6.78l214.37,103.24c2.74,1.32,5.94,1.32,8.68,0Z"/></g></svg>